<svg width="413" height="296" viewBox="0 0 413 296" fill="none" xmlns="http://www.w3.org/2000/svg">
<path fill-rule="evenodd" clip-rule="evenodd" d="M84 230L259 230V146H218.497C219.462 148.135 220 150.505 220 153C220 162.389 212.389 170 203 170C193.611 170 186 162.389 186 153C186 150.505 186.538 148.135 187.503 146H171V55H84V97.9915L84.9915 97L113.983 125.991L84.9915 154.983L84 153.991V230Z" fill="#16DBCC"/>
<rect x="372" y="214" width="41" height="41" fill="#13CE66"/>
<circle cx="258.5" cy="41.5" r="22.5" fill="#FE82A1"/>
<rect x="79.2131" y="105" width="30" height="30" transform="rotate(45 79.2131 105)" fill="#FDD54B"/>
<path d="M197 246L218.651 283.5H175.349L197 246Z" fill="#7E5BEF"/>
<path fill-rule="evenodd" clip-rule="evenodd" d="M289 41.5C289 58.3447 275.345 72 258.5 72C241.655 72 228 58.3447 228 41.5C228 40.6583 228.034 39.8245 228.101 39H197V123H285V214H372V143H344V61H372V39H288.899C288.966 39.8245 289 40.6583 289 41.5Z" fill="#7E5BEF"/>
<rect x="356" y="74" width="56" height="56" fill="#FF9E7C"/>
<mask id="path-8-inside-1" fill="white">
<path fill-rule="evenodd" clip-rule="evenodd" d="M227.374 245.031C229.941 247.379 234.074 245.558 234.074 242.08L234.074 188.807C234.074 185.727 230.741 183.803 228.074 185.343L181.873 212.017C178.871 213.75 179.345 218.222 182.644 219.287L196.741 223.84C196.76 223.846 196.779 223.855 196.797 223.865V223.865C196.936 223.945 196.983 224.122 196.903 224.261L181.048 251.723C179.943 253.636 180.599 256.082 182.512 257.187L194.636 264.187C196.55 265.291 198.996 264.636 200.1 262.723L215.65 235.791C215.899 235.359 216.45 235.212 216.881 235.461V235.461C216.938 235.493 216.991 235.532 217.039 235.576L227.374 245.031Z"/>
</mask>
<path d="M217.039 235.576L218.389 234.101L217.039 235.576ZM215.65 235.791L217.382 236.791L215.65 235.791ZM194.636 264.187L195.636 262.455L194.636 264.187ZM200.1 262.723L198.368 261.723L200.1 262.723ZM182.512 257.187L181.512 258.919L182.512 257.187ZM196.903 224.261L195.171 223.261L196.903 224.261ZM196.741 223.84L197.356 221.937L196.741 223.84ZM182.644 219.287L183.258 217.384L182.644 219.287ZM227.374 245.031L226.024 246.507L227.374 245.031ZM232.074 188.807L232.074 242.08L236.074 242.08L236.074 188.807L232.074 188.807ZM182.873 213.749L229.074 187.075L227.074 183.611L180.873 210.285L182.873 213.749ZM197.356 221.937L183.258 217.384L182.029 221.19L196.126 225.743L197.356 221.937ZM182.78 252.723L198.635 225.261L195.171 223.261L179.316 250.723L182.78 252.723ZM195.636 262.455L183.512 255.455L181.512 258.919L193.636 265.919L195.636 262.455ZM213.918 234.791L198.368 261.723L201.833 263.723L217.382 236.791L213.918 234.791ZM228.724 243.556L218.389 234.101L215.689 237.052L226.024 246.507L228.724 243.556ZM215.881 237.193C215.812 237.153 215.748 237.106 215.689 237.052L218.389 234.101C218.234 233.959 218.063 233.834 217.881 233.729L215.881 237.193ZM217.382 236.791C217.078 237.316 216.407 237.496 215.881 237.193L217.881 233.729C216.493 232.927 214.719 233.403 213.918 234.791L217.382 236.791ZM193.636 265.919C196.506 267.576 200.176 266.592 201.833 263.723L198.368 261.723C197.816 262.679 196.593 263.007 195.636 262.455L193.636 265.919ZM179.316 250.723C177.659 253.592 178.642 257.262 181.512 258.919L183.512 255.455C182.555 254.903 182.228 253.679 182.78 252.723L179.316 250.723ZM195.797 225.597C194.979 225.125 194.699 224.079 195.171 223.261L198.635 225.261C199.267 224.166 198.892 222.765 197.797 222.133L195.797 225.597ZM196.126 225.743C196.012 225.706 195.901 225.657 195.797 225.597L197.797 222.133C197.657 222.052 197.509 221.987 197.356 221.937L196.126 225.743ZM180.873 210.285C176.37 212.885 177.081 219.592 182.029 221.19L183.258 217.384C181.609 216.851 181.372 214.615 182.873 213.749L180.873 210.285ZM232.074 242.08C232.074 243.819 230.007 244.73 228.724 243.556L226.024 246.507C229.874 250.029 236.074 247.298 236.074 242.08L232.074 242.08ZM236.074 188.807C236.074 184.188 231.074 181.301 227.074 183.611L229.074 187.075C230.407 186.305 232.074 187.267 232.074 188.807L236.074 188.807Z" fill="#3C4858" mask="url(#path-8-inside-1)"/>
<g filter="url(#filter0_d)">
<mask id="path-10-inside-2" fill="white">
<path fill-rule="evenodd" clip-rule="evenodd" d="M56 182C48.268 182 42 188.268 42 196C42 203.732 48.268 210 56 210H81.8812L86.5 218L91.1188 210H95C102.732 210 109 203.732 109 196C109 188.268 102.732 182 95 182H56Z"/>
</mask>
<path fill-rule="evenodd" clip-rule="evenodd" d="M56 182C48.268 182 42 188.268 42 196C42 203.732 48.268 210 56 210H81.8812L86.5 218L91.1188 210H95C102.732 210 109 203.732 109 196C109 188.268 102.732 182 95 182H56Z" fill="white"/>
<path d="M81.8812 210L83.6132 209L83.0359 208H81.8812V210ZM86.5 218L84.7679 219L86.5 222L88.2321 219L86.5 218ZM91.1188 210V208H89.9641L89.3868 209L91.1188 210ZM44 196C44 189.373 49.3726 184 56 184V180C47.1634 180 40 187.163 40 196H44ZM56 208C49.3726 208 44 202.627 44 196H40C40 204.837 47.1634 212 56 212V208ZM81.8812 208H56V212H81.8812V208ZM88.2321 217L83.6132 209L80.1491 211L84.7679 219L88.2321 217ZM89.3868 209L84.7679 217L88.2321 219L92.8509 211L89.3868 209ZM95 208H91.1188V212H95V208ZM107 196C107 202.627 101.627 208 95 208V212C103.837 212 111 204.837 111 196H107ZM95 184C101.627 184 107 189.373 107 196H111C111 187.163 103.837 180 95 180V184ZM56 184H95V180H56V184Z" fill="#3C4858" mask="url(#path-10-inside-2)"/>
</g>
<g filter="url(#filter1_d)">
<mask id="path-12-inside-3" fill="white">
<path fill-rule="evenodd" clip-rule="evenodd" d="M324 7C316.268 7 310 13.268 310 21C310 28.732 316.268 35 324 35H349.881L354.5 43L359.119 35H363C370.732 35 377 28.732 377 21C377 13.268 370.732 7 363 7H324Z"/>
</mask>
<path fill-rule="evenodd" clip-rule="evenodd" d="M324 7C316.268 7 310 13.268 310 21C310 28.732 316.268 35 324 35H349.881L354.5 43L359.119 35H363C370.732 35 377 28.732 377 21C377 13.268 370.732 7 363 7H324Z" fill="white"/>
<path d="M349.881 35L351.613 34L351.036 33H349.881V35ZM354.5 43L352.768 44L354.5 47L356.232 44L354.5 43ZM359.119 35V33H357.964L357.387 34L359.119 35ZM312 21C312 14.3726 317.373 9 324 9V5C315.163 5 308 12.1634 308 21H312ZM324 33C317.373 33 312 27.6274 312 21H308C308 29.8366 315.163 37 324 37V33ZM349.881 33H324V37H349.881V33ZM356.232 42L351.613 34L348.149 36L352.768 44L356.232 42ZM357.387 34L352.768 42L356.232 44L360.851 36L357.387 34ZM363 33H359.119V37H363V33ZM375 21C375 27.6274 369.627 33 363 33V37C371.837 37 379 29.8366 379 21H375ZM363 9C369.627 9 375 14.3726 375 21H379C379 12.1634 371.837 5 363 5V9ZM324 9H363V5H324V9Z" fill="#3C4858" mask="url(#path-12-inside-3)"/>
</g>
<circle cx="203" cy="153" r="11" fill="#FF9E7C"/>
<rect x="270" y="178" width="127" height="62" stroke="#3C4858" stroke-width="2"/>
<rect x="1" y="26" width="127" height="143" stroke="#3C4858" stroke-width="2"/>
<path d="M67 50L45.3494 12.5L88.6506 12.5L67 50Z" fill="#13CE66"/>
<path d="M64 196.5L64.0382 196.665L64.0764 196.83L64.1146 196.994L64.1529 197.158L64.1911 197.322L64.2293 197.485L64.2675 197.647L64.3057 197.807L64.3439 197.967L64.3822 198.125L64.4204 198.282L64.4586 198.438L64.4968 198.591L64.535 198.743L64.5732 198.892L64.6115 199.04L64.6497 199.185L64.6879 199.328L64.7261 199.468L64.7643 199.606L64.8025 199.74L64.8408 199.872L64.879 200.001L64.9172 200.127L64.9554 200.249L64.9936 200.368L65.0318 200.484L65.0701 200.596L65.1083 200.704L65.1465 200.808L65.1847 200.909L65.2229 201.006L65.2611 201.098L65.2994 201.187L65.3376 201.271L65.3758 201.351L65.414 201.426L65.4522 201.498L65.4904 201.564L65.5287 201.626L65.5669 201.684L65.6051 201.737L65.6433 201.785L65.6815 201.828L65.7197 201.867L65.758 201.9L65.7962 201.929L65.8344 201.953L65.8726 201.972L65.9108 201.986L65.949 201.996L65.9873 202L66.0255 201.999L66.0637 201.993L66.1019 201.983L66.1401 201.967L66.1783 201.947L66.2166 201.922L66.2548 201.891L66.293 201.856L66.3312 201.816L66.3694 201.772L66.4076 201.722L66.4459 201.668L66.4841 201.609L66.5223 201.546L66.5605 201.478L66.5987 201.406L66.6369 201.329L66.6752 201.248L66.7134 201.162L66.7516 201.073L66.7898 200.979L66.828 200.881L66.8662 200.779L66.9045 200.674L66.9427 200.565L66.9809 200.452L67.0191 200.335L67.0573 200.215L67.0955 200.092L67.1338 199.965L67.172 199.836L67.2102 199.703L67.2484 199.567L67.2866 199.429L67.3248 199.288L67.3631 199.145L67.4013 198.999L67.4395 198.851L67.4777 198.7L67.5159 198.548L67.5541 198.394L67.5924 198.238L67.6306 198.081L67.6688 197.922L67.707 197.762L67.7452 197.601L67.7834 197.439L67.8217 197.276L67.8599 197.113L67.8981 196.948L67.9363 196.784L67.9745 196.619L68.0127 196.454L68.051 196.289L68.0892 196.124L68.1274 195.96L68.1656 195.796L68.2038 195.632L68.242 195.47L68.2803 195.308L68.3185 195.148L68.3567 194.988L68.3949 194.831L68.4331 194.674L68.4713 194.519L68.5096 194.366L68.5478 194.215L68.586 194.066L68.6242 193.919L68.6624 193.775L68.7006 193.633L68.7389 193.493L68.7771 193.356L68.8153 193.222L68.8535 193.091L68.8917 192.964L68.9299 192.839L68.9682 192.717L69.0064 192.599L69.0446 192.485L69.0828 192.374L69.121 192.267L69.1592 192.163L69.1975 192.064L69.2357 191.968L69.2739 191.877L69.3121 191.789L69.3503 191.706L69.3885 191.628L69.4268 191.553L69.465 191.483L69.5032 191.418L69.5414 191.357L69.5796 191.301L69.6178 191.25L69.6561 191.203L69.6943 191.161L69.7325 191.124L69.7707 191.091L69.8089 191.064L69.8471 191.041L69.8854 191.023L69.9236 191.011L69.9618 191.003L70 191L70.0382 191.002L70.0764 191.009L70.1146 191.021L70.1529 191.038L70.1911 191.06L70.2293 191.087L70.2675 191.118L70.3057 191.155L70.3439 191.196L70.3822 191.242L70.4204 191.293L70.4586 191.348L70.4968 191.408L70.535 191.473L70.5732 191.542L70.6115 191.615L70.6497 191.694L70.6879 191.776L70.7261 191.862L70.7643 191.953L70.8025 192.048L70.8408 192.147L70.879 192.25L70.9172 192.356L70.9554 192.467L70.9936 192.581L71.0318 192.698L71.0701 192.819L71.1083 192.943L71.1465 193.071L71.1847 193.201L71.2229 193.335L71.2611 193.471L71.2994 193.61L71.3376 193.752L71.3758 193.896L71.414 194.043L71.4522 194.191L71.4904 194.342L71.5287 194.495L71.5669 194.649L71.6051 194.806L71.6433 194.963L71.6815 195.122L71.7197 195.283L71.758 195.444L71.7962 195.606L71.8344 195.77L71.8726 195.934L71.9108 196.098L71.949 196.263L71.9873 196.428L72.0255 196.593L72.0637 196.757L72.1019 196.922L72.1401 197.086L72.1783 197.25L72.2166 197.413L72.2548 197.576L72.293 197.737L72.3312 197.897L72.3694 198.056L72.4076 198.214L72.4459 198.37L72.4841 198.524L72.5223 198.676L72.5605 198.827L72.5987 198.975L72.6369 199.122L72.6752 199.265L72.7134 199.407L72.7516 199.545L72.7898 199.681L72.828 199.815L72.8662 199.945L72.9045 200.072L72.9427 200.196L72.9809 200.316L73.0191 200.433L73.0573 200.547L73.0955 200.657L73.1338 200.763L73.172 200.865L73.2102 200.964L73.2484 201.058L73.2866 201.148L73.3248 201.234L73.3631 201.316L73.4013 201.394L73.4395 201.467L73.4777 201.535L73.5159 201.6L73.5541 201.659L73.5924 201.714L73.6306 201.764L73.6688 201.81L73.707 201.85L73.7452 201.886L73.7834 201.917L73.8217 201.943L73.8599 201.964L73.8981 201.981L73.9363 201.992L73.9745 201.999L74.0127 202L74.051 201.997L74.0892 201.988L74.1274 201.975L74.1656 201.956L74.2038 201.933L74.242 201.905L74.2803 201.872L74.3185 201.834L74.3567 201.792L74.3949 201.745L74.4331 201.693L74.4713 201.636L74.5096 201.574L74.5478 201.508L74.586 201.438L74.6242 201.363L74.6624 201.284L74.7006 201.2L74.7389 201.113L74.7771 201.021L74.8153 200.925L74.8535 200.825L74.8917 200.721L74.9299 200.613L74.9682 200.502L75.0064 200.387L75.0446 200.268L75.0828 200.146L75.121 200.021L75.1592 199.893L75.1975 199.762L75.2357 199.627L75.2739 199.49L75.3121 199.35L75.3503 199.208L75.3885 199.063L75.4268 198.916L75.465 198.767L75.5032 198.615L75.5414 198.462L75.5796 198.307L75.6178 198.151L75.6561 197.992L75.6943 197.833L75.7325 197.672L75.7707 197.511L75.8089 197.348L75.8471 197.185L75.8854 197.021L75.9236 196.856L75.9618 196.691L76 196.526L76.0382 196.361L76.0764 196.196L76.1146 196.032L76.1529 195.868L76.1911 195.704L76.2293 195.541L76.2675 195.379L76.3057 195.218L76.3439 195.058L76.3822 194.9L76.4204 194.743L76.4586 194.587L76.4968 194.433L76.535 194.281L76.5732 194.131L76.6115 193.984L76.6497 193.838L76.6879 193.695L76.7261 193.554L76.7643 193.416L76.8025 193.281L76.8408 193.149L76.879 193.019L76.9172 192.893L76.9554 192.77L76.9936 192.651L77.0318 192.535L77.0701 192.422L77.1083 192.313L77.1465 192.208L77.1847 192.107L77.2229 192.01L77.2611 191.916L77.2994 191.827L77.3376 191.742L77.3758 191.662L77.414 191.585L77.4522 191.514L77.4904 191.446L77.5287 191.383L77.5669 191.325L77.6051 191.272L77.6433 191.223L77.6815 191.179L77.7197 191.139L77.758 191.105L77.7962 191.075L77.8344 191.05L77.8726 191.031L77.9108 191.016L77.949 191.006L77.9873 191.001L78.0255 191.001L78.0637 191.005L78.1019 191.015L78.1401 191.03L78.1783 191.05L78.2166 191.074L78.2548 191.104L78.293 191.138L78.3312 191.177L78.3694 191.221L78.4076 191.27L78.4459 191.323L78.4841 191.381L78.5223 191.444L78.5605 191.511L78.5987 191.583L78.6369 191.659L78.6752 191.739L78.7134 191.824L78.7516 191.913L78.7898 192.006L78.828 192.103L78.8662 192.204L78.9045 192.309L78.9427 192.418L78.9809 192.53L79.0191 192.646L79.0573 192.766L79.0955 192.888L79.1338 193.014L79.172 193.144L79.2102 193.276L79.2484 193.411L79.2866 193.549L79.3248 193.689L79.3631 193.832L79.4013 193.978L79.4395 194.126L79.4777 194.276L79.5159 194.427L79.5541 194.581L79.5924 194.737L79.6306 194.894L79.6688 195.052L79.707 195.212L79.7452 195.373L79.7834 195.535L79.8217 195.698L79.8599 195.861L79.8981 196.026L79.9363 196.19L79.9745 196.355L80.0127 196.52L80.051 196.685L80.0892 196.85L80.1274 197.014L80.1656 197.178L80.2038 197.342L80.242 197.504L80.2803 197.666L80.3185 197.827L80.3567 197.986L80.3949 198.144L80.4331 198.301L80.4713 198.456L80.5096 198.61L80.5478 198.761L80.586 198.91L80.6242 199.058L80.6624 199.202L80.7006 199.345L80.7389 199.485L80.7771 199.622L80.8153 199.756L80.8535 199.888L80.8917 200.016L80.9299 200.142L80.9682 200.264L81.0064 200.382L81.0446 200.497L81.0828 200.609L81.121 200.717L81.1592 200.821L81.1975 200.921L81.2357 201.017L81.2739 201.109L81.3121 201.197L81.3503 201.281L81.3885 201.36L81.4268 201.435L81.465 201.506L81.5032 201.572L81.5414 201.634L81.5796 201.69L81.6178 201.743L81.6561 201.79L81.6943 201.833L81.7325 201.871L81.7707 201.904L81.8089 201.932L81.8471 201.956L81.8854 201.974L81.9236 201.988L81.9618 201.996L82 202L82.0382 201.999L82.0764 201.992L82.1146 201.981L82.1529 201.965L82.1911 201.944L82.2293 201.918L82.2675 201.887L82.3057 201.852L82.3439 201.811L82.3822 201.766L82.4204 201.716L82.4586 201.661L82.4968 201.602L82.535 201.538L82.5732 201.47L82.6115 201.397L82.6497 201.319L82.6879 201.238L82.7261 201.152L82.7643 201.062L82.8025 200.967L82.8408 200.869L82.879 200.767L82.9172 200.661L82.9554 200.551L82.9936 200.438L83.0318 200.321L83.0701 200.2L83.1083 200.077L83.1465 199.95L83.1847 199.82L83.2229 199.687L83.2611 199.551L83.2994 199.412L83.3376 199.271L83.3758 199.127L83.414 198.981L83.4522 198.833L83.4904 198.682L83.5287 198.53L83.5669 198.375L83.6051 198.22L83.6433 198.062L83.6815 197.903L83.7197 197.743L83.758 197.582L83.7962 197.42L83.8344 197.256L83.8726 197.093L83.9108 196.928L83.949 196.764L83.9873 196.599L84.0255 196.434L84.0637 196.269L84.1019 196.104L84.1401 195.94L84.1783 195.776L84.2166 195.613L84.2548 195.45L84.293 195.289L84.3312 195.128L84.3694 194.969L84.4076 194.812L84.4459 194.655L84.4841 194.501L84.5223 194.348L84.5605 194.197L84.5987 194.048L84.6369 193.902L84.6752 193.757L84.7134 193.616L84.7516 193.477L84.7898 193.34L84.828 193.206L84.8662 193.076L84.9045 192.948L84.9427 192.824L84.9809 192.703L85.0191 192.585L85.0573 192.471L85.0955 192.361L85.1338 192.254L85.172 192.151L85.2102 192.052L85.2484 191.957L85.2866 191.866L85.3248 191.779L85.3631 191.697L85.4013 191.618L85.4395 191.545L85.4777 191.475L85.5159 191.41L85.5541 191.35L85.5924 191.295L85.6306 191.244L85.6688 191.197L85.707 191.156L85.7452 191.119L85.7834 191.088L85.8217 191.061L85.8599 191.039L85.8981 191.022L85.9363 191.009L85.9745 191.002L86.0127 191L86.051 191.003L86.0892 191.01L86.1274 191.023L86.1656 191.04L86.2038 191.063L86.242 191.09L86.2803 191.122L86.3185 191.159L86.3567 191.201L86.3949 191.248L86.4331 191.299L86.4713 191.355L86.5096 191.416L86.5478 191.481L86.586 191.551L86.6242 191.625L86.6624 191.703L86.7006 191.786L86.7389 191.873L86.7771 191.965L86.8153 192.06L86.8535 192.159L86.8917 192.263L86.9299 192.37L86.9682 192.48L87.0064 192.595L87.0446 192.713L87.0828 192.834L87.121 192.959L87.1592 193.087L87.1975 193.217L87.2357 193.351L87.2739 193.488L87.3121 193.627L87.3503 193.769L87.3885 193.914L87.4268 194.06L87.465 194.209L87.5032 194.36L87.5414 194.513L87.5796 194.668L87.6178 194.825L87.6561 194.982L87.6943 195.142L87.7325 195.302L87.7707 195.464L87.8089 195.626L87.8471 195.789L87.8854 195.953L87.9236 196.118L87.9618 196.283L88 196.447" stroke="#3C4858" stroke-width="2"/>
<path d="M332 21.5L332.038 21.665L332.076 21.8299L332.115 21.9944L332.153 22.1585L332.191 22.322L332.229 22.4847L332.268 22.6466L332.306 22.8074L332.344 22.9671L332.382 23.1254L332.42 23.2823L332.459 23.4376L332.497 23.5911L332.535 23.7428L332.573 23.8924L332.611 24.0399L332.65 24.185L332.688 24.3278L332.726 24.4681L332.764 24.6056L332.803 24.7404L332.841 24.8722L332.879 25.001L332.917 25.1267L332.955 25.2491L332.994 25.3681L333.032 25.4837L333.07 25.5956L333.108 25.7039L333.146 25.8084L333.185 25.909L333.223 26.0056L333.261 26.0982L333.299 26.1867L333.338 26.2709L333.376 26.3509L333.414 26.4264L333.452 26.4976L333.49 26.5642L333.529 26.6263L333.567 26.6838L333.605 26.7366L333.643 26.7847L333.682 26.828L333.72 26.8666L333.758 26.9003L333.796 26.9291L333.834 26.9531L333.873 26.9722L333.911 26.9863L333.949 26.9955L333.987 26.9998L334.025 26.9991L334.064 26.9934L334.102 26.9829L334.14 26.9673L334.178 26.9469L334.217 26.9216L334.255 26.8913L334.293 26.8563L334.331 26.8164L334.369 26.7717L334.408 26.7223L334.446 26.6681L334.484 26.6094L334.522 26.546L334.561 26.4781L334.599 26.4057L334.637 26.3289L334.675 26.2477L334.713 26.1623L334.752 26.0727L334.79 25.979L334.828 25.8812L334.866 25.7795L334.904 25.6739L334.943 25.5646L334.981 25.4516L335.019 25.3351L335.057 25.2151L335.096 25.0918L335.134 24.9652L335.172 24.8356L335.21 24.7029L335.248 24.5673L335.287 24.429L335.325 24.2881L335.363 24.1446L335.401 23.9988L335.439 23.8507L335.478 23.7005L335.516 23.5483L335.554 23.3942L335.592 23.2385L335.631 23.0812L335.669 22.9225L335.707 22.7625L335.745 22.6013L335.783 22.4392L335.822 22.2762L335.86 22.1125L335.898 21.9483L335.936 21.7837L335.975 21.6188L336.013 21.4538L336.051 21.2889L336.089 21.1241L336.127 20.9597L336.166 20.7957L336.204 20.6324L336.242 20.4699L336.28 20.3083L336.318 20.1478L336.357 19.9885L336.395 19.8306L336.433 19.6741L336.471 19.5193L336.51 19.3663L336.548 19.2152L336.586 19.0662L336.624 18.9193L336.662 18.7748L336.701 18.6327L336.739 18.4932L336.777 18.3564L336.815 18.2225L336.854 18.0915L336.892 17.9635L336.93 17.8388L336.968 17.7173L337.006 17.5992L337.045 17.4847L337.083 17.3738L337.121 17.2665L337.159 17.1631L337.197 17.0636L337.236 16.9681L337.274 16.8767L337.312 16.7894L337.35 16.7063L337.389 16.6276L337.427 16.5533L337.465 16.4834L337.503 16.418L337.541 16.3572L337.58 16.301L337.618 16.2495L337.656 16.2028L337.694 16.1608L337.732 16.1236L337.771 16.0912L337.809 16.0637L337.847 16.0411L337.885 16.0235L337.924 16.0107L337.962 16.0029L338 16L338.038 16.0021L338.076 16.0091L338.115 16.0211L338.153 16.038L338.191 16.0598L338.229 16.0865L338.268 16.1181L338.306 16.1545L338.344 16.1958L338.382 16.2418L338.42 16.2925L338.459 16.348L338.497 16.408L338.535 16.4727L338.573 16.5418L338.611 16.6155L338.65 16.6935L338.688 16.7759L338.726 16.8625L338.764 16.9533L338.803 17.0481L338.841 17.147L338.879 17.2498L338.917 17.3564L338.955 17.4668L338.994 17.5808L339.032 17.6983L339.07 17.8192L339.108 17.9434L339.146 18.0709L339.185 18.2014L339.223 18.3349L339.261 18.4712L339.299 18.6103L339.338 18.752L339.376 18.8961L339.414 19.0426L339.452 19.1913L339.49 19.3421L339.529 19.4948L339.567 19.6493L339.605 19.8055L339.643 19.9632L339.682 20.1223L339.72 20.2827L339.758 20.4441L339.796 20.6065L339.834 20.7697L339.873 20.9335L339.911 21.0979L339.949 21.2626L339.987 21.4275L340.025 21.5925L340.064 21.7574L340.102 21.9221L340.14 22.0864L340.178 22.2502L340.217 22.4133L340.255 22.5756L340.293 22.7369L340.331 22.8971L340.369 23.056L340.408 23.2135L340.446 23.3695L340.484 23.5238L340.522 23.6763L340.561 23.8269L340.599 23.9753L340.637 24.1215L340.675 24.2654L340.713 24.4067L340.752 24.5455L340.79 24.6815L340.828 24.8146L340.866 24.9448L340.904 25.0719L340.943 25.1957L340.981 25.3162L341.019 25.4333L341.057 25.5469L341.096 25.6568L341.134 25.7629L341.172 25.8653L341.21 25.9637L341.248 26.058L341.287 26.1483L341.325 26.2344L341.363 26.3163L341.401 26.3938L341.439 26.4669L341.478 26.5355L341.516 26.5996L341.554 26.6591L341.592 26.714L341.631 26.7641L341.669 26.8096L341.707 26.8502L341.745 26.8861L341.783 26.9171L341.822 26.9432L341.86 26.9644L341.898 26.9807L341.936 26.9921L341.975 26.9985L342.013 27L342.051 26.9965L342.089 26.9881L342.127 26.9748L342.166 26.9565L342.204 26.9333L342.242 26.9052L342.28 26.8723L342.318 26.8345L342.357 26.7919L342.395 26.7446L342.433 26.6925L342.471 26.6358L342.51 26.5744L342.548 26.5085L342.586 26.4381L342.624 26.3632L342.662 26.2839L342.701 26.2004L342.739 26.1126L342.777 26.0207L342.815 25.9247L342.854 25.8247L342.892 25.7208L342.93 25.6131L342.968 25.5017L343.006 25.3868L343.045 25.2683L343.083 25.1464L343.121 25.0213L343.159 24.8929L343.197 24.7616L343.236 24.6273L343.274 24.4901L343.312 24.3503L343.35 24.208L343.389 24.0631L343.427 23.916L343.465 23.7667L343.503 23.6154L343.541 23.4621L343.58 23.3071L343.618 23.1505L343.656 22.9924L343.694 22.8329L343.732 22.6723L343.771 22.5106L343.809 22.3479L343.847 22.1846L343.885 22.0206L343.924 21.8561L343.962 21.6913L344 21.5263L344.038 21.3613L344.076 21.1965L344.115 21.0319L344.153 20.8677L344.191 20.7041L344.229 20.5412L344.268 20.3792L344.306 20.2182L344.344 20.0584L344.382 19.8998L344.42 19.7427L344.459 19.5871L344.497 19.4333L344.535 19.2814L344.573 19.1314L344.611 18.9836L344.65 18.838L344.688 18.6948L344.726 18.5542L344.764 18.4162L344.803 18.281L344.841 18.1487L344.879 18.0194L344.917 17.8932L344.955 17.7703L344.994 17.6507L345.032 17.5346L345.07 17.4221L345.108 17.3132L345.146 17.2081L345.185 17.1069L345.223 17.0096L345.261 16.9163L345.299 16.8272L345.338 16.7423L345.376 16.6617L345.414 16.5854L345.452 16.5135L345.49 16.4462L345.529 16.3834L345.567 16.3252L345.605 16.2716L345.643 16.2227L345.682 16.1786L345.72 16.1393L345.758 16.1048L345.796 16.0752L345.834 16.0505L345.873 16.0306L345.911 16.0157L345.949 16.0057L345.987 16.0007L346.025 16.0006L346.064 16.0054L346.102 16.0152L346.14 16.03L346.178 16.0496L346.217 16.0742L346.255 16.1036L346.293 16.1379L346.331 16.1771L346.369 16.221L346.408 16.2696L346.446 16.323L346.484 16.3811L346.522 16.4437L346.561 16.5109L346.599 16.5826L346.637 16.6587L346.675 16.7391L346.713 16.8239L346.752 16.9128L346.79 17.0059L346.828 17.1031L346.866 17.2041L346.904 17.3091L346.943 17.4178L346.981 17.5302L347.019 17.6462L347.057 17.7656L347.096 17.8884L347.134 18.0145L347.172 18.1437L347.21 18.2759L347.248 18.411L347.287 18.5489L347.325 18.6894L347.363 18.8325L347.401 18.978L347.439 19.1257L347.478 19.2756L347.516 19.4275L347.554 19.5812L347.592 19.7367L347.631 19.8938L347.669 20.0523L347.707 20.2121L347.745 20.373L347.783 20.535L347.822 20.6979L347.86 20.8614L347.898 21.0256L347.936 21.1902L347.975 21.355L348.013 21.52L348.051 21.685L348.089 21.8498L348.127 22.0143L348.166 22.1783L348.204 22.3417L348.242 22.5044L348.28 22.6661L348.318 22.8268L348.357 22.9863L348.395 23.1445L348.433 23.3012L348.471 23.4562L348.51 23.6096L348.548 23.761L348.586 23.9103L348.624 24.0575L348.662 24.2025L348.701 24.3449L348.739 24.4848L348.777 24.6221L348.815 24.7565L348.854 24.888L348.892 25.0164L348.93 25.1417L348.968 25.2637L349.006 25.3823L349.045 25.4974L349.083 25.6089L349.121 25.7167L349.159 25.8208L349.197 25.9209L349.236 26.0171L349.274 26.1092L349.312 26.1971L349.35 26.2808L349.389 26.3602L349.427 26.4353L349.465 26.5059L349.503 26.572L349.541 26.6335L349.58 26.6904L349.618 26.7427L349.656 26.7902L349.694 26.833L349.732 26.8709L349.771 26.904L349.809 26.9323L349.847 26.9557L349.885 26.9742L349.924 26.9877L349.962 26.9963L350 27L350.038 26.9987L350.076 26.9924L350.115 26.9812L350.153 26.9651L350.191 26.9441L350.229 26.9182L350.268 26.8873L350.306 26.8517L350.344 26.8112L350.382 26.766L350.42 26.716L350.459 26.6613L350.497 26.602L350.535 26.538L350.573 26.4696L350.611 26.3966L350.65 26.3193L350.688 26.2376L350.726 26.1517L350.764 26.0616L350.803 25.9673L350.841 25.8691L350.879 25.7669L350.917 25.6609L350.955 25.5511L350.994 25.4377L351.032 25.3208L351.07 25.2004L351.108 25.0767L351.146 24.9497L351.185 24.8197L351.223 24.6866L351.261 24.5507L351.299 24.4121L351.338 24.2708L351.376 24.1271L351.414 23.981L351.452 23.8326L351.49 23.6821L351.529 23.5297L351.567 23.3755L351.605 23.2195L351.643 23.0621L351.682 22.9032L351.72 22.743L351.758 22.5818L351.796 22.4195L351.834 22.2564L351.873 22.0927L351.911 21.9284L351.949 21.7637L351.987 21.5988L352.025 21.4338L352.064 21.2689L352.102 21.1042L352.14 20.9398L352.178 20.7759L352.217 20.6127L352.255 20.4503L352.293 20.2888L352.331 20.1285L352.369 19.9693L352.408 19.8115L352.446 19.6553L352.484 19.5007L352.522 19.3479L352.561 19.1971L352.599 19.0483L352.637 18.9017L352.675 18.7575L352.713 18.6157L352.752 18.4765L352.79 18.3401L352.828 18.2065L352.866 18.0758L352.904 17.9483L352.943 17.8239L352.981 17.7028L353.019 17.5852L353.057 17.4711L353.096 17.3606L353.134 17.2538L353.172 17.1509L353.21 17.0518L353.248 16.9568L353.287 16.8659L353.325 16.7791L353.363 16.6966L353.401 16.6184L353.439 16.5446L353.478 16.4752L353.516 16.4104L353.554 16.3502L353.592 16.2946L353.631 16.2436L353.669 16.1974L353.707 16.156L353.745 16.1194L353.783 16.0876L353.822 16.0607L353.86 16.0387L353.898 16.0216L353.936 16.0095L353.975 16.0023L354.013 16L354.051 16.0027L354.089 16.0103L354.127 16.0229L354.166 16.0404L354.204 16.0628L354.242 16.0901L354.28 16.1223L354.318 16.1593L354.357 16.2011L354.395 16.2477L354.433 16.299L354.471 16.355L354.51 16.4156L354.548 16.4808L354.586 16.5505L354.624 16.6247L354.662 16.7032L354.701 16.7861L354.739 16.8732L354.777 16.9645L354.815 17.0599L354.854 17.1592L354.892 17.2625L354.93 17.3696L354.968 17.4804L355.006 17.5948L355.045 17.7127L355.083 17.8341L355.121 17.9587L355.159 18.0865L355.197 18.2174L355.236 18.3512L355.274 18.4879L355.312 18.6273L355.35 18.7693L355.389 18.9137L355.427 19.0605L355.465 19.2095L355.503 19.3605L355.541 19.5134L355.58 19.6682L355.618 19.8245L355.656 19.9824L355.694 20.1417L355.732 20.3022L355.771 20.4637L355.809 20.6262L355.847 20.7895L355.885 20.9534L355.924 21.1178L355.962 21.2825L356 21.4475" stroke="#3C4858" stroke-width="2"/>
<rect x="299" y="230" width="21" height="21" fill="#FE82A1"/>
<defs>
<filter id="filter0_d" x="42" y="182" width="67" height="40" filterUnits="userSpaceOnUse" color-interpolation-filters="sRGB">
<feFlood flood-opacity="0" result="BackgroundImageFix"/>
<feColorMatrix in="SourceAlpha" type="matrix" values="0 0 0 0 0 0 0 0 0 0 0 0 0 0 0 0 0 0 127 0"/>
<feOffset dy="4"/>
<feColorMatrix type="matrix" values="0 0 0 0 0.235294 0 0 0 0 0.282353 0 0 0 0 0.345098 0 0 0 1 0"/>
<feBlend mode="normal" in2="BackgroundImageFix" result="effect1_dropShadow"/>
<feBlend mode="normal" in="SourceGraphic" in2="effect1_dropShadow" result="shape"/>
</filter>
<filter id="filter1_d" x="310" y="7" width="67" height="40" filterUnits="userSpaceOnUse" color-interpolation-filters="sRGB">
<feFlood flood-opacity="0" result="BackgroundImageFix"/>
<feColorMatrix in="SourceAlpha" type="matrix" values="0 0 0 0 0 0 0 0 0 0 0 0 0 0 0 0 0 0 127 0"/>
<feOffset dy="4"/>
<feColorMatrix type="matrix" values="0 0 0 0 0.235294 0 0 0 0 0.282353 0 0 0 0 0.345098 0 0 0 1 0"/>
<feBlend mode="normal" in2="BackgroundImageFix" result="effect1_dropShadow"/>
<feBlend mode="normal" in="SourceGraphic" in2="effect1_dropShadow" result="shape"/>
</filter>
</defs>
</svg>
