<svg width="993" height="630" viewBox="0 0 993 630" fill="none" xmlns="http://www.w3.org/2000/svg">
<path fill-rule="evenodd" clip-rule="evenodd" d="M993 412.5H830V575.5H880.305L903.305 552.5L926.305 575.5H993V412.5Z" fill="#FE9F7C"/>
<path d="M903.305 565.5L935.153 597.347L903.305 629.195L871.458 597.347L903.305 565.5Z" fill="#7450E9"/>
<path d="M989 122.5C989 141.278 973.778 156.5 955 156.5C936.222 156.5 921 141.278 921 122.5C921 103.722 936.222 88.5 955 88.5C973.778 88.5 989 103.722 989 122.5Z" fill="#7450E9"/>
<path d="M201 58.5L167.225 5.90541e-06L234.775 0L201 58.5Z" fill="#11CE66"/>
<path fill-rule="evenodd" clip-rule="evenodd" d="M27.4766 249.298L27.4766 326.5H140V213.977H64.1063C63.7574 233.547 47.7842 249.304 28.1308 249.304C27.9123 249.304 27.6942 249.302 27.4766 249.298Z" fill="#FE82A1"/>
<path d="M54.9533 213.977C54.9533 229.152 42.6516 241.453 27.4766 241.453C12.3017 241.453 0 229.152 0 213.977C0 198.802 12.3017 186.5 27.4766 186.5C42.6516 186.5 54.9533 198.802 54.9533 213.977Z" fill="#FED44C"/>
<path d="M91 47.5C91 45.8431 92.3431 44.5 94 44.5H962C963.657 44.5 965 45.8431 965 47.5V545.5C965 547.157 963.657 548.5 962 548.5H94C92.3432 548.5 91 547.157 91 545.5V47.5Z" fill="#7450E9"/>
<path fill-rule="evenodd" clip-rule="evenodd" d="M962 47.5L94 47.5V545.5H962V47.5ZM94 44.5C92.3431 44.5 91 45.8431 91 47.5V545.5C91 547.157 92.3432 548.5 94 548.5H962C963.657 548.5 965 547.157 965 545.5V47.5C965 45.8431 963.657 44.5 962 44.5H94Z" fill="#273444"/>
<path d="M81 35.5C81 33.8431 82.3431 32.5 84 32.5H952C953.657 32.5 955 33.8431 955 35.5V533.5C955 535.157 953.657 536.5 952 536.5H84C82.3432 536.5 81 535.157 81 533.5V35.5Z" fill="white"/>
<path fill-rule="evenodd" clip-rule="evenodd" d="M952 35.5L84 35.5V533.5H952V35.5ZM84 32.5C82.3431 32.5 81 33.8431 81 35.5V533.5C81 535.157 82.3432 536.5 84 536.5H952C953.657 536.5 955 535.157 955 533.5V35.5C955 33.8431 953.657 32.5 952 32.5H84Z" fill="#273444"/>
<path d="M107 54C107 56.4853 104.985 58.5 102.5 58.5C100.015 58.5 98 56.4853 98 54C98 51.5147 100.015 49.5 102.5 49.5C104.985 49.5 107 51.5147 107 54Z" fill="#273444"/>
<path d="M123.5 54C123.5 56.4853 121.485 58.5 119 58.5C116.515 58.5 114.5 56.4853 114.5 54C114.5 51.5147 116.515 49.5 119 49.5C121.485 49.5 123.5 51.5147 123.5 54Z" fill="#273444"/>
<path d="M140 54C140 56.4853 137.985 58.5 135.5 58.5C133.015 58.5 131 56.4853 131 54C131 51.5147 133.015 49.5 135.5 49.5C137.985 49.5 140 51.5147 140 54Z" fill="#273444"/>
<path d="M377 536C377 555.054 361.554 570.5 342.5 570.5C323.446 570.5 308 555.054 308 536C308 516.946 323.446 501.5 342.5 501.5C361.554 501.5 377 516.946 377 536Z" fill="#FED44C"/>
<path fill-rule="evenodd" clip-rule="evenodd" d="M705.727 0.994385L706.2 1.02892L706.656 1.12351L707.08 1.26879L707.466 1.45311L707.815 1.66564L708.127 1.89798L708.408 2.14446L708.663 2.40186L708.897 2.66861L709.114 2.94414L709.318 3.22859L709.51 3.5224L709.694 3.82604L709.871 4.14013L710.042 4.46519L710.209 4.8016L710.371 5.1498L710.531 5.51007L710.688 5.88254L710.842 6.26741L710.995 6.66473L711.147 7.07445L711.297 7.49657L711.446 7.93098L711.594 8.37749L711.741 8.83595L711.887 9.30615L712.033 9.78777L712.178 10.2806L712.322 10.7843L712.466 11.2985L712.612 11.8292L712.755 12.3629L712.898 12.9059L713.041 13.4581L713.183 14.0187L713.326 14.5875L713.468 15.164L713.609 15.7476L713.751 16.3379L713.893 16.9345L714.034 17.5368L714.175 18.1442L714.316 18.7564L714.457 19.3726L714.597 19.9895L714.598 19.9925L714.738 20.6129L715.16 22.496L715.16 22.4971L715.3 23.1262L715.44 23.7566L710.56 24.8425L710.42 24.2133L710.28 23.5854L710.28 23.5843L709.86 21.712L709.581 20.4802L709.304 19.2717L709.164 18.6688L709.026 18.0827L709.025 18.0769L708.886 17.4919L708.749 16.9213L708.747 16.9143L708.611 16.3524L708.609 16.3447L708.473 15.792L708.471 15.7836L708.335 15.2409L708.333 15.2317L708.197 14.6994L708.195 14.6894L708.06 14.1681L708.057 14.1573L707.923 13.6477L707.92 13.6359L707.786 13.1386L707.783 13.1258L707.65 12.6414L707.646 12.6276L707.514 12.1566L707.51 12.1416L707.379 11.6848L707.374 11.6686L707.244 11.2265L707.239 11.209L707.11 10.7823L707.104 10.7633L706.976 10.3528L706.97 10.3321L706.843 9.93845L706.836 9.91598L706.707 9.52797L706.576 9.14434L706.446 8.77804L706.317 8.42874L706.189 8.09787L706.064 7.78566L705.941 7.49286L705.82 7.22045L705.708 6.98036L705.605 7.19885L705.485 7.46967L705.362 7.76099L705.236 8.07172L705.109 8.40063L704.98 8.74823L704.85 9.11302L704.719 9.49544L704.59 9.88226L704.583 9.90489L704.457 10.2971L704.45 10.318L704.322 10.727L704.317 10.7463L704.188 11.1716L704.182 11.1893L704.052 11.63L704.047 11.6464L703.916 12.102L703.912 12.1171L703.78 12.5869L703.776 12.6008L703.644 13.0842L703.64 13.097L703.507 13.5933L703.503 13.6052L703.369 14.1138L703.366 14.1247L703.232 14.645L703.229 14.6551L703.094 15.1865L703.092 15.1957L702.956 15.7376L702.954 15.7461L702.818 16.2979L702.816 16.3057L702.679 16.8668L702.678 16.8739L702.541 17.4438L702.401 18.0341L702.263 18.6196L702.262 18.6248L702.124 19.2174L701.985 19.8209L701.705 21.0462L701.566 21.6633L701.147 23.5324L701.147 23.5335L701.007 24.1607L700.867 24.7903L700.727 25.4202L700.587 26.0501L700.447 26.6796L700.446 26.6809L700.025 28.5598L699.884 29.1851L699.743 29.8045L699.602 30.416L699.46 31.0317L699.32 31.6329L699.177 32.2396L699.037 32.8286L699.036 32.8351L698.896 33.4171L698.894 33.4243L698.754 33.9987L698.752 34.0067L698.612 34.5731L698.609 34.5817L698.469 35.1397L698.467 35.1491L698.327 35.698L698.324 35.7082L698.184 36.2476L698.181 36.2587L698.041 36.7881L698.038 36.8001L697.898 37.319L697.894 37.3321L697.752 37.8471L697.608 38.3584L697.463 38.859L697.318 39.3488L697.172 39.8272L697.025 40.2941L696.878 40.7493L696.73 41.1924L696.581 41.6234L696.43 42.042L696.279 42.4483L696.125 42.8421L695.97 43.2235L695.812 43.5925L695.652 43.9494L695.488 44.2943L695.321 44.6274L695.148 44.9494L694.969 45.2605L694.783 45.5613L694.588 45.8525L694.381 46.1344L694.16 46.4074L693.92 46.6717L693.658 46.9262L693.369 47.1692L693.047 47.3966L692.688 47.6022L692.29 47.7768L691.857 47.909L691.395 47.9875L690.92 48.0042L690.449 47.9573L689.999 47.8519L689.582 47.6979L689.203 47.5072L688.862 47.2902L688.556 47.0547L688.281 46.8059L688.03 46.5466L687.8 46.2781L687.586 46.0008L687.384 45.7145L687.194 45.4188L687.011 45.1132L686.836 44.797L686.666 44.4697L686.5 44.131L686.338 43.7804L686.179 43.4177L686.023 43.0428L685.868 42.6555L685.716 42.2557L685.565 41.8436L685.415 41.419L685.266 40.9822L685.119 40.5333L684.972 40.0725L684.825 39.6L684.68 39.1162L684.535 38.6212L684.39 38.1154L684.244 37.5924L684.101 37.0665L683.958 36.531L683.818 35.9968L683.815 35.9861L683.675 35.4421L683.672 35.4323L683.532 34.879L683.53 34.87L683.39 34.3079L683.388 34.2996L683.247 33.7293L683.246 33.7217L683.105 33.1436L683.104 33.1367L682.964 32.5513L682.962 32.5451L682.821 31.9473L682.681 31.3491L682.398 30.1266L681.975 28.264L681.694 27.0094L681.694 27.008L681.554 26.38L681.413 25.7497L681.273 25.1193L681.133 24.4897L680.993 23.8612L680.434 21.3652L680.156 20.142L680.016 19.5318L679.877 18.931L679.739 18.3417L679.599 17.7481L679.462 17.1739L679.46 17.1672L679.323 16.6014L679.322 16.594L679.185 16.0372L679.183 16.0291L679.047 15.4819L679.045 15.4731L678.91 14.9361L678.907 14.9265L678.772 14.4004L678.77 14.3899L678.635 13.8751L678.632 13.8637L678.498 13.3609L678.495 13.3486L678.362 12.8584L678.358 12.845L678.226 12.3681L678.222 12.3536L678.09 11.8905L678.086 11.8748L677.953 11.4177L677.818 10.9664L677.683 10.5298L677.55 10.1079L677.417 9.7011L677.285 9.31091L677.155 8.93678L677.025 8.58024L676.897 8.24117L676.771 7.92064L676.646 7.61927L676.524 7.3378L676.405 7.0768L676.359 6.9815L676.309 7.08643L676.19 7.34815L676.068 7.63049L675.943 7.9327L675.817 8.25385L675.689 8.59332L675.559 8.95077L675.428 9.32558L675.297 9.71658L675.164 10.1237L675.03 10.5461L674.896 10.9836L674.761 11.435L674.628 11.8929L674.623 11.9086L674.492 12.3722L674.488 12.3867L674.355 12.8641L674.352 12.8774L674.219 13.3681L674.215 13.3804L674.081 13.8837L674.078 13.895L673.944 14.4102L673.941 14.4207L673.806 14.9473L673.804 14.9568L673.668 15.4942L673.666 15.503L673.53 16.0506L673.528 16.0587L673.392 16.6158L673.39 16.6232L673.253 17.1893L673.252 17.196L673.115 17.7705L673.113 17.7766L672.976 18.3589L672.836 18.9588L672.698 19.555L672.558 20.1653L672.279 21.3916L671.86 23.2568L671.86 23.2581L671.721 23.8844L671.581 24.5134L671.44 25.1434L671.3 25.7733L670.739 28.2855L670.456 29.5327L670.174 30.7635L670.034 31.3672L669.891 31.976L669.751 32.5679L669.61 33.1592L669.608 33.1661L669.468 33.744L669.466 33.7516L669.326 34.3216L669.324 34.3299L669.184 34.8916L669.181 34.9007L669.041 35.4536L669.039 35.4635L668.899 36.0071L668.896 36.0178L668.756 36.5517L668.753 36.5633L668.609 37.0995L668.467 37.6191L668.323 38.135L668.178 38.6403L668.033 39.1349L667.888 39.6183L667.742 40.0904L667.595 40.5507L667.447 40.9991L667.298 41.4355L667.148 41.8596L666.997 42.2713L666.845 42.6706L666.69 43.0574L666.534 43.4319L666.375 43.794L666.212 44.1441L666.047 44.4824L665.876 44.8093L665.7 45.125L665.518 45.4303L665.327 45.7257L665.125 46.0116L664.911 46.2885L664.679 46.5567L664.428 46.8156L664.151 47.064L663.844 47.2989L663.502 47.5151L663.122 47.7046L662.703 47.8569L662.252 47.9603L661.781 48.0048L661.306 47.9856L660.845 47.9049L660.412 47.7708L660.016 47.5949L659.659 47.3883L659.339 47.1601L659.05 46.9167L658.789 46.6617L658.551 46.3972L658.33 46.1238L658.123 45.8415L657.928 45.55L657.742 45.2488L657.564 44.9373L657.392 44.6149L657.224 44.2813L657.061 43.9359L656.9 43.5786L656.743 43.2091L656.588 42.8273L656.434 42.433L656.283 42.0262L656.132 41.6071L655.983 41.1757L655.835 40.7321L655.688 40.2765L655.541 39.8091L655.396 39.3302L655.25 38.8401L655.106 38.339L654.961 37.8273L654.816 37.2989L654.672 36.7676L654.532 36.2378L654.529 36.2267L654.389 35.687L654.387 35.6767L654.244 35.1181L654.102 34.5513L653.962 33.9845L653.96 33.9766L653.82 33.4018L653.818 33.3947L653.678 32.8124L653.676 32.8059L653.536 32.2167L653.535 32.2108L653.395 31.6152L653.253 31.0083L652.127 26.0268L651.986 25.3964L651.846 24.7663L650.589 19.1944L650.452 18.6021L650.313 18.0116L650.312 18.0057L650.174 17.428L650.173 17.4216L650.036 16.852L650.034 16.8449L649.898 16.2841L649.896 16.2763L649.76 15.7249L649.758 15.7164L649.622 15.1748L649.62 15.1655L649.484 14.6346L649.482 14.6245L649.347 14.1046L649.344 14.0936L649.209 13.5794L649.072 13.0713L648.935 12.5751L648.799 12.0913L648.664 11.6206L648.529 11.1631L648.394 10.7201L648.26 10.2913L648.127 9.87809L647.995 9.48046L647.864 9.09911L647.734 8.73475L647.605 8.38793L647.478 8.05925L647.352 7.74933L647.229 7.45894L647.109 7.18887L647.011 6.98033L646.894 7.23046L646.774 7.50392L646.65 7.79746L646.524 8.1104L646.397 8.44188L646.268 8.79174L646.138 9.1588L646.006 9.54267L645.874 9.94282L645.741 10.3585L645.607 10.7894L645.472 11.2352L645.337 11.6943L645.201 12.1676L645.065 12.6535L644.929 13.1516L644.79 13.6674L644.656 14.1775L644.653 14.1883L644.519 14.71L644.516 14.7199L644.381 15.2526L644.379 15.2618L644.243 15.8049L644.241 15.8133L644.105 16.3663L644.103 16.374L643.966 16.9362L643.964 16.9432L643.828 17.5141L643.826 17.5205L643.689 18.0994L643.687 18.1052L643.55 18.6916L643.411 19.2901L643.272 19.8943L643.132 20.5037L642.573 22.9831L642.154 24.8665L641.03 29.8755L640.748 31.1005L640.607 31.7059L640.605 31.7113L640.465 32.306L640.464 32.312L640.324 32.9001L640.322 32.9067L640.182 33.4878L640.18 33.4951L640.04 34.0686L640.038 34.0766L639.896 34.6508L639.753 35.2172L639.613 35.7649L639.61 35.7753L639.47 36.3135L639.467 36.3247L639.324 36.865L639.18 37.3958L639.038 37.9095L638.894 38.4195L638.749 38.9189L638.604 39.4072L638.458 39.8843L638.311 40.3498L638.164 40.8035L638.015 41.2452L637.866 41.6747L637.716 42.0918L637.564 42.4966L637.41 42.8889L637.255 43.2688L637.097 43.6364L636.936 43.9917L636.772 44.3352L636.604 44.667L636.43 44.9876L636.251 45.2974L636.064 45.5971L635.867 45.887L635.659 46.1679L635.435 46.4399L635.193 46.703L634.928 46.9563L634.635 47.1976L634.309 47.4228L633.945 47.6252L633.543 47.7953L633.106 47.9216L632.641 47.9929L632.166 48.0019L631.697 47.9475L631.25 47.8356L630.838 47.6766L630.463 47.4822L630.127 47.2626L629.825 47.0253L629.553 46.775L629.305 46.5145L629.077 46.245L628.864 45.9666L628.664 45.6793L628.475 45.3824L628.293 45.0755L628.119 44.758L627.949 44.4293L627.784 44.0892L627.622 43.7372L627.464 43.373L627.307 42.9966L627.153 42.6078L627.001 42.2065L626.85 41.7928L626.7 41.3668L626.552 40.9285L626.404 40.4782L626.257 40.0159L626.111 39.5421L625.966 39.0569L625.821 38.5606L625.676 38.0535L625.531 37.5293L625.387 37.0023L625.244 36.4656L625.101 35.9196L624.958 35.3647L624.816 34.8014L624.676 34.2383L624.674 34.2301L624.532 33.6513L624.392 33.0723L624.39 33.0655L624.25 32.4793L624.249 32.4731L624.108 31.8802L624.107 31.8747L623.967 31.2757L623.966 31.2707L622.56 25.0431L627.44 23.9573L628.837 30.1417L628.974 30.7301L628.976 30.7357L629.113 31.3168L629.115 31.323L629.252 31.8962L629.253 31.903L629.39 32.4677L629.392 32.4752L629.528 33.0308L629.53 33.039L629.666 33.585L629.668 33.5939L629.803 34.1296L629.806 34.1394L629.941 34.6642L629.944 34.6748L630.078 35.1881L630.081 35.1996L630.215 35.7009L630.218 35.7134L630.351 36.202L630.355 36.2155L630.487 36.6908L630.491 36.7054L630.623 37.1668L630.627 37.1826L630.76 37.6379L630.895 38.0875L631.029 38.5224L631.163 38.9426L631.295 39.3472L631.427 39.7358L631.558 40.1076L631.687 40.4622L631.815 40.799L631.941 41.1172L632.065 41.4162L632.187 41.6954L632.305 41.9538L632.337 42.0191L632.402 41.8835L632.521 41.6191L632.644 41.3345L632.768 41.0299L632.895 40.7065L633.023 40.3646L633.153 40.0051L633.284 39.6285L633.416 39.2354L633.549 38.8263L633.682 38.4021L633.817 37.9628L633.952 37.5095L634.085 37.0502L634.089 37.0347L634.221 36.5694L634.225 36.5551L634.358 36.076L634.361 36.0628L634.494 35.5705L634.498 35.5584L634.632 35.0536L634.635 35.0424L634.769 34.5258L634.772 34.5154L634.907 33.9875L634.909 33.978L635.045 33.4394L635.047 33.4306L635.183 32.8819L635.185 32.8739L635.321 32.3157L635.323 32.3084L635.46 31.7412L635.461 31.7346L635.599 31.1591L635.6 31.1531L635.737 30.5699L635.739 30.5645L635.878 29.9693L637.133 24.4108L637.273 23.7808L638.681 17.5548L638.821 16.9575L638.822 16.9517L638.964 16.3543L639.106 15.7631L639.248 15.1785L639.39 14.601L639.532 14.0312L639.675 13.4694L639.818 12.9161L639.961 12.3717L640.105 11.8367L640.247 11.3184L640.391 10.8038L640.536 10.2997L640.681 9.80644L640.826 9.32437L640.973 8.85374L641.12 8.39483L641.268 7.94784L641.416 7.51298L641.566 7.09039L641.718 6.68017L641.87 6.28239L642.025 5.89705L642.182 5.52409L642.341 5.16338L642.504 4.81473L642.67 4.47784L642.841 4.15237L643.018 3.83788L643.201 3.53382L643.393 3.23967L643.596 2.95487L643.813 2.67899L644.046 2.41191L644.301 2.15414L644.581 1.90717L644.892 1.67422L645.238 1.4608L645.624 1.2752L646.046 1.12821L646.501 1.03149L646.973 0.994534L647.447 1.02142L647.905 1.10915L648.334 1.2489L648.725 1.42912L649.078 1.63875L649.394 1.86902L649.679 2.11401L649.937 2.37022L650.174 2.63586L650.392 2.91034L650.597 3.1937L650.791 3.48633L650.976 3.78876L651.154 4.10157L651.325 4.42525L651.492 4.76029L651.655 5.10705L651.815 5.46582L651.972 5.83682L652.127 6.22019L652.281 6.61599L652.432 7.02422L652.582 7.44486L652.731 7.87777L652.879 8.32284L653.026 8.77987L653.173 9.24864L653.319 9.72891L653.464 10.2204L653.608 10.7228L653.753 11.2357L653.898 11.7653L654.042 12.2978L654.185 12.8398L654.327 13.3908L654.47 13.9504L654.612 14.5183L654.754 15.0938L654.896 15.6766L655.037 16.2662L655.179 16.862L655.32 17.4636L655.462 18.0705L655.603 18.6821L655.744 19.2979L655.884 19.9173L656.166 21.1651L656.306 21.7923L656.727 23.6803L656.867 24.3102L657.007 24.9392L657.566 27.4356L657.845 28.6644L657.985 29.276L658.123 29.8739L658.263 30.4754L658.4 31.0598L658.402 31.0657L658.539 31.6425L658.54 31.649L658.677 32.2175L658.679 32.2247L658.815 32.7844L658.817 32.7923L658.953 33.3426L658.956 33.3512L659.091 33.8915L659.094 33.9008L659.229 34.4305L659.231 34.4407L659.366 34.9592L659.369 34.9703L659.503 35.477L659.506 35.489L659.639 35.9832L659.643 35.9963L659.776 36.4775L659.78 36.4916L659.911 36.9592L659.916 36.9745L660.049 37.4361L660.184 37.8914L660.319 38.3331L660.452 38.7598L660.585 39.1712L660.717 39.567L660.849 39.9464L660.979 40.3086L661.107 40.6533L661.234 40.9796L661.359 41.2873L661.482 41.5751L661.602 41.8428L661.685 42.0195L661.699 41.9929L661.817 41.738L661.938 41.4621L662.061 41.1661L662.187 40.8511L662.315 40.5172L662.444 40.1651L662.574 39.7961L662.706 39.4102L662.839 39.0078L662.972 38.5903L663.106 38.1574L663.24 37.7108L663.373 37.2574L663.378 37.2413L663.509 36.7823L663.514 36.7674L663.646 36.2943L663.65 36.2807L663.782 35.7941L663.786 35.7815L663.92 35.2822L663.923 35.2706L664.057 34.7591L664.06 34.7484L664.194 34.2253L664.197 34.2155L664.332 33.6815L664.335 33.6724L664.47 33.128L664.472 33.1197L664.609 32.5656L664.611 32.558L664.747 31.9947L664.749 31.9878L664.886 31.4159L664.887 31.4096L665.025 30.8297L665.026 30.824L665.165 30.2316L665.303 29.6375L665.861 27.1873L666.42 24.6875L666.56 24.0577L666.7 23.4278L666.84 22.7979L666.98 22.1686L666.981 22.1673L667.261 20.914L667.403 20.287L667.684 19.0465L667.825 18.4362L667.967 17.8215L668.107 17.2216L668.248 16.6223L668.25 16.6162L668.39 16.0289L668.392 16.0221L668.532 15.4419L668.533 15.4346L668.674 14.862L668.676 14.8539L668.816 14.2895L668.818 14.2807L668.958 13.7249L668.961 13.7153L669.101 13.1687L669.103 13.1582L669.243 12.6212L669.246 12.6099L669.39 12.0707L669.534 11.5411L669.676 11.0286L669.82 10.5199L669.965 10.0219L670.11 9.53484L670.256 9.05917L670.403 8.59507L670.551 8.14281L670.699 7.70261L670.848 7.27461L670.999 6.85893L671.151 6.45569L671.305 6.06489L671.461 5.68648L671.619 5.32042L671.78 4.9665L671.945 4.62447L672.114 4.29405L672.288 3.97478L672.468 3.6662L672.656 3.36778L672.854 3.07892L673.064 2.79915L673.29 2.5282L673.534 2.26622L673.802 2.01422L674.099 1.77459L674.43 1.55173L674.798 1.35269L675.204 1.1873L675.646 1.0671L676.112 1.003L676.588 1.00177L677.055 1.06356L677.498 1.18179L677.906 1.34568L678.276 1.54362L678.608 1.76571L678.906 2.0048L679.175 2.25638L679.42 2.51799L679.646 2.78863L679.857 3.06805L680.055 3.35653L680.244 3.6546L680.424 3.96278L680.599 4.28161L680.768 4.61162L680.932 4.95318L681.094 5.30665L681.252 5.67224L681.408 6.05016L681.562 6.44051L681.714 6.84327L681.865 7.25846L682.014 7.68601L682.163 8.12574L682.31 8.57753L682.457 9.04119L682.603 9.51642L682.748 10.003L682.893 10.5006L683.038 11.009L683.183 11.5344L683.327 12.0626L683.47 12.6004L683.613 13.1475L683.755 13.7034L683.898 14.2677L684.04 14.84L684.182 15.4196L684.323 16.0063L684.465 16.5994L684.606 17.1986L684.748 17.8031L684.889 18.4127L685.03 19.0268L685.171 19.6446L685.311 20.266L685.873 22.7729L686.014 23.4032L686.154 24.0335L686.294 24.6629L686.573 25.9177L686.574 25.9191L686.853 27.166L687.132 28.3993L687.271 29.0054L687.549 30.2089L687.689 30.8071L687.828 31.3935L687.965 31.9658L687.966 31.9727L688.103 32.5363L688.105 32.5439L688.241 33.0984L688.243 33.1066L688.379 33.6514L688.381 33.6604L688.517 34.1948L688.519 34.2047L688.654 34.7282L688.657 34.7388L688.791 35.2508L688.794 35.2624L688.928 35.7621L688.931 35.7747L689.064 36.2618L689.068 36.2754L689.2 36.7491L689.204 36.7638L689.336 37.2234L689.34 37.2395L689.47 37.6844L689.476 37.7017L689.605 38.1315L689.611 38.1502L689.739 38.5639L689.745 38.5843L689.872 38.9813L689.879 39.0034L690.008 39.3954L690.139 39.7816L690.27 40.1511L690.399 40.5039L690.527 40.8386L690.652 41.1542L690.776 41.451L690.898 41.7277L691.016 41.9836L691.033 42.0194L691.112 41.8529L691.232 41.5859L691.355 41.2986L691.48 40.992L691.607 40.6662L691.735 40.3221L691.865 39.9603L691.996 39.5817L692.125 39.1983L692.258 38.7865L692.265 38.7653L692.392 38.3595L692.398 38.3399L692.527 37.9178L692.532 37.8998L692.662 37.462L692.667 37.4454L692.798 36.9927L692.802 36.9774L692.934 36.5103L692.938 36.4962L693.071 36.0155L693.074 36.0024L693.207 35.5086L693.211 35.4966L693.345 34.9903L693.348 34.9792L693.482 34.4612L693.485 34.4509L693.62 33.9217L693.622 33.9123L693.758 33.3724L693.76 33.3638L693.896 32.8139L693.898 32.8059L694.034 32.2466L694.036 32.2394L694.173 31.6712L694.175 31.6646L694.313 31.0822L694.452 30.4928L694.59 29.9016L694.73 29.2949L694.868 28.6914L695.008 28.0788L695.147 27.462L695.566 25.592L695.706 24.964L695.846 24.3346L695.986 23.7046L696.127 23.0747L696.267 22.4451L696.267 22.4439L696.688 20.5638L696.83 19.9381L697.111 18.7056L697.252 18.0938L697.393 17.4868L697.394 17.4816L697.536 16.8791L697.677 16.2825L697.818 15.6991L697.819 15.692L697.959 15.116L698.101 14.5402L698.104 14.5317L698.244 13.972L698.246 13.9628L698.386 13.4121L698.389 13.402L698.529 12.8607L698.532 12.8498L698.672 12.3184L698.675 12.3065L698.815 11.7855L698.819 11.7726L698.961 11.2555L699.105 10.7422L699.25 10.2394L699.395 9.74751L699.54 9.26683L699.687 8.79759L699.834 8.34011L699.982 7.8946L700.131 7.4612L700.281 7.0401L700.432 6.6314L700.586 6.23511L700.74 5.85127L700.898 5.47981L701.057 5.12056L701.22 4.77334L701.387 4.43788L701.559 4.11375L701.736 3.80054L701.92 3.49774L702.114 3.20472L702.318 2.92102L702.537 2.64622L702.772 2.38021L703.029 2.12363L703.313 1.87817L703.628 1.64722L703.979 1.43667L704.369 1.25513L704.796 1.11361L705.254 1.02369L705.727 0.994385Z" fill="#16DBCC"/>
</svg>
